<?xml version="1.0" encoding="UTF-8"?>
<svg width="1200pt" height="1200pt" version="1.1" viewBox="0 0 1200 1200" xmlns="http://www.w3.org/2000/svg">
 <path d="m901.59 650.84c19.285-113.71-27.457-233.43-129.31-302.09-101.86-68.664-230.36-67.094-328.54-6.5742-175.45-83.941-316.51-109.97-353.44-55.188-45.902 68.074 84.203 238.49 299.54 403.58 0.33594 0.25391 0.66016 0.50391 0.99609 0.75781 7.1172 5.4492 14.34 10.883 21.637 16.32 0.99609 0.74219 1.9922 1.5 3 2.2578 6.5508 4.8477 13.199 9.6953 19.895 14.531 1.7773 1.2852 3.5156 2.5781 5.3047 3.8633 6.3359 4.5469 12.77 9.0703 19.223 13.598 2.125 1.4883 4.1992 2.9883 6.3359 4.4766 8.5547 5.9648 17.219 11.891 25.98 17.797 8.7852 5.9141 17.555 11.734 26.305 17.449 1.7266 1.1289 3.4336 2.1953 5.1484 3.3125 7.1055 4.6094 14.195 9.1797 21.277 13.656 1.4141 0.88672 2.8086 1.7539 4.2227 2.6289 7.4141 4.668 14.82 9.2656 22.199 13.777 0.9375 0.5625 1.8594 1.1172 2.7969 1.6797 7.8828 4.8008 15.758 9.5273 23.594 14.16 0.37109 0.21484 0.74219 0.42188 1.1055 0.63672 233.8 137.71 440.55 194.39 486.46 126.31 36.918-54.789-40.121-175.79-183.73-306.95zm-647.85-273.57c14.281-21.191 63.949-15.648 133.05 10.379-12.758 13.02-24.574 27.301-35.137 42.973-14.977 22.223-26.508 45.719-34.922 69.887-52.48-56.051-77.609-101.55-62.996-123.24zm686.57 462.88c-14.617 21.684-66.227 15.434-137.86-12.18 19.246-16.859 36.707-36.371 51.684-58.598 10.559-15.66 19.367-31.969 26.652-48.695 50.039 54.312 73.812 98.281 59.52 119.47z" fill="#fff"/>
 <path d="m303 643.36c11.82 81.625 56.734 158.15 130.51 207.88 73.777 49.738 161.55 62.676 241.66 43.02-61.969-32.148-127.21-70.789-193.03-115.16-65.809-44.352-126.1-90.348-179.14-135.73z" fill="#fff"/>
</svg>
